<?xml version="1.0" encoding="utf-8"?>
<!-- Generator: Adobe Illustrator 21.1.0, SVG Export Plug-In . SVG Version: 6.00 Build 0)  -->
<svg version="1.1" id="Layer_1" xmlns="http://www.w3.org/2000/svg" xmlns:xlink="http://www.w3.org/1999/xlink" x="0px" y="0px"
	 viewBox="0 0 512 512" style="enable-background:new 0 0 512 512;" xml:space="preserve">
<style type="text/css">
	.st0{fill:#7CB442;}
</style>
<path class="st0" d="M256.2,0C115.2,0,0,115.2,0,256.2C0,396.8,115.2,512,256.2,512C396.8,512,512,396.8,512,256.2
	C512,115.2,396.8,0,256.2,0z M391.4,322c-16.8,42.2-49,84.8-106.6,92.1c-90.2,11.8-165.5-30.8-173.2-128.3
	c-3.2-41.7,10.9-71.6,37.6-100.2c9.5-10,18.1-5.9,14.1,10c-10.4,37.6-19,90.2,8.6,116.5c4.1,4.1,8.6,2.7,8.6-4.5
	c-0.9-63,28.6-143.3,81.6-184.1c19.5-15,68.5-35.8,92.1-23.6c20,10.4,33.6,56.7,38.6,77.5C404.5,231.7,402.7,293.9,391.4,322z"/>
</svg>
